<mxfile host="app.diagrams.net" modified="2023-10-06T17:12:23.477Z" agent="Mozilla/5.0 (Macintosh; Intel Mac OS X 10_15_7) AppleWebKit/537.36 (KHTML, like Gecko) Chrome/117.0.0.0 Safari/537.36" etag="W3vj3Xa1j-qYjTN_TzW4" version="22.0.3" type="github">
  <diagram name="Page-1" id="E1WG4Elm6tf5TSE58CV2">
    <mxGraphModel dx="1026" dy="655" grid="1" gridSize="10" guides="1" tooltips="1" connect="1" arrows="1" fold="1" page="1" pageScale="1" pageWidth="850" pageHeight="1100" math="0" shadow="0">
      <root>
        <mxCell id="0" />
        <mxCell id="1" parent="0" />
        <mxCell id="5ytcgciPrF8T2E_5U3Z--3" value="" style="edgeStyle=orthogonalEdgeStyle;rounded=0;orthogonalLoop=1;jettySize=auto;html=1;" edge="1" parent="1" source="5ytcgciPrF8T2E_5U3Z--1" target="5ytcgciPrF8T2E_5U3Z--2">
          <mxGeometry relative="1" as="geometry" />
        </mxCell>
        <mxCell id="5ytcgciPrF8T2E_5U3Z--1" value="ESPN Servers" style="shape=cylinder3;whiteSpace=wrap;html=1;boundedLbl=1;backgroundOutline=1;size=15;fillColor=#d5e8d4;strokeColor=#82b366;" vertex="1" parent="1">
          <mxGeometry x="100" y="80" width="90" height="100" as="geometry" />
        </mxCell>
        <mxCell id="5ytcgciPrF8T2E_5U3Z--5" style="edgeStyle=orthogonalEdgeStyle;rounded=0;orthogonalLoop=1;jettySize=auto;html=1;exitX=0.5;exitY=1;exitDx=0;exitDy=0;entryX=0.5;entryY=0;entryDx=0;entryDy=0;" edge="1" parent="1" source="5ytcgciPrF8T2E_5U3Z--2" target="5ytcgciPrF8T2E_5U3Z--4">
          <mxGeometry relative="1" as="geometry" />
        </mxCell>
        <mxCell id="5ytcgciPrF8T2E_5U3Z--2" value="Grab data using ESPN API" style="whiteSpace=wrap;html=1;" vertex="1" parent="1">
          <mxGeometry x="85" y="260" width="120" height="60" as="geometry" />
        </mxCell>
        <mxCell id="5ytcgciPrF8T2E_5U3Z--7" style="edgeStyle=orthogonalEdgeStyle;rounded=0;orthogonalLoop=1;jettySize=auto;html=1;entryX=0;entryY=0.5;entryDx=0;entryDy=0;" edge="1" parent="1" source="5ytcgciPrF8T2E_5U3Z--4" target="5ytcgciPrF8T2E_5U3Z--6">
          <mxGeometry relative="1" as="geometry" />
        </mxCell>
        <mxCell id="5ytcgciPrF8T2E_5U3Z--4" value="Information week by week&amp;nbsp;" style="shape=process;whiteSpace=wrap;html=1;backgroundOutline=1;" vertex="1" parent="1">
          <mxGeometry x="85" y="390" width="120" height="60" as="geometry" />
        </mxCell>
        <mxCell id="5ytcgciPrF8T2E_5U3Z--9" value="" style="edgeStyle=orthogonalEdgeStyle;rounded=0;orthogonalLoop=1;jettySize=auto;html=1;" edge="1" parent="1" source="5ytcgciPrF8T2E_5U3Z--6" target="5ytcgciPrF8T2E_5U3Z--8">
          <mxGeometry relative="1" as="geometry" />
        </mxCell>
        <mxCell id="5ytcgciPrF8T2E_5U3Z--6" value="Process raw data" style="rounded=1;whiteSpace=wrap;html=1;fillColor=#dae8fc;strokeColor=#6c8ebf;" vertex="1" parent="1">
          <mxGeometry x="305" y="100" width="120" height="60" as="geometry" />
        </mxCell>
        <mxCell id="5ytcgciPrF8T2E_5U3Z--11" value="" style="edgeStyle=orthogonalEdgeStyle;rounded=0;orthogonalLoop=1;jettySize=auto;html=1;" edge="1" parent="1" source="5ytcgciPrF8T2E_5U3Z--8" target="5ytcgciPrF8T2E_5U3Z--10">
          <mxGeometry relative="1" as="geometry" />
        </mxCell>
        <mxCell id="5ytcgciPrF8T2E_5U3Z--8" value="By week, populate team with data." style="rounded=1;whiteSpace=wrap;html=1;" vertex="1" parent="1">
          <mxGeometry x="305" y="260" width="120" height="60" as="geometry" />
        </mxCell>
        <mxCell id="5ytcgciPrF8T2E_5U3Z--13" value="" style="edgeStyle=orthogonalEdgeStyle;rounded=0;orthogonalLoop=1;jettySize=auto;html=1;entryX=0;entryY=0.5;entryDx=0;entryDy=0;" edge="1" parent="1" source="5ytcgciPrF8T2E_5U3Z--10" target="5ytcgciPrF8T2E_5U3Z--12">
          <mxGeometry relative="1" as="geometry" />
        </mxCell>
        <mxCell id="5ytcgciPrF8T2E_5U3Z--10" value="Ensure all teams have 18 weeks (including bye weeks)" style="rounded=1;whiteSpace=wrap;html=1;" vertex="1" parent="1">
          <mxGeometry x="305" y="390" width="120" height="60" as="geometry" />
        </mxCell>
        <mxCell id="5ytcgciPrF8T2E_5U3Z--15" value="" style="edgeStyle=orthogonalEdgeStyle;rounded=0;orthogonalLoop=1;jettySize=auto;html=1;" edge="1" parent="1" source="5ytcgciPrF8T2E_5U3Z--12" target="5ytcgciPrF8T2E_5U3Z--14">
          <mxGeometry relative="1" as="geometry" />
        </mxCell>
        <mxCell id="5ytcgciPrF8T2E_5U3Z--12" value="Analyze data for weekly winners." style="rounded=1;whiteSpace=wrap;html=1;" vertex="1" parent="1">
          <mxGeometry x="540" y="100" width="120" height="60" as="geometry" />
        </mxCell>
        <mxCell id="5ytcgciPrF8T2E_5U3Z--17" value="" style="edgeStyle=orthogonalEdgeStyle;rounded=0;orthogonalLoop=1;jettySize=auto;html=1;" edge="1" parent="1" source="5ytcgciPrF8T2E_5U3Z--14" target="5ytcgciPrF8T2E_5U3Z--16">
          <mxGeometry relative="1" as="geometry" />
        </mxCell>
        <mxCell id="5ytcgciPrF8T2E_5U3Z--14" value="Keep track of rollover" style="rounded=1;whiteSpace=wrap;html=1;" vertex="1" parent="1">
          <mxGeometry x="540" y="260" width="120" height="60" as="geometry" />
        </mxCell>
        <mxCell id="5ytcgciPrF8T2E_5U3Z--16" value="Email results to group" style="rounded=1;whiteSpace=wrap;html=1;" vertex="1" parent="1">
          <mxGeometry x="540" y="390" width="120" height="60" as="geometry" />
        </mxCell>
      </root>
    </mxGraphModel>
  </diagram>
</mxfile>
